<?xml version="1.0" encoding="utf-8"?>
<!-- Generator: Adobe Illustrator 26.0.1, SVG Export Plug-In . SVG Version: 6.00 Build 0)  -->
<svg version="1.1" id="Layer_1" xmlns="http://www.w3.org/2000/svg" xmlns:xlink="http://www.w3.org/1999/xlink" x="0px" y="0px"
	 viewBox="0 0 2500 2500" style="enable-background:new 0 0 2500 2500;" xml:space="preserve">
<style type="text/css">
	.st0{fill:#3C5A9A;}
</style>
<path class="st0" d="M1250,0C559.64,0,0,559.64,0,1250s559.64,1250,1250,1250s1250-559.64,1250-1250S1940.36,0,1250,0z
	 M1636.15,1239.69h-237.7v876.62h-360.13v-870.87H842.34V942.93h190.1c0-89.45,0.8-168.94,0-251.94
	c0-238.19,182.78-307.31,347.1-307.31h277.04v298.83c-23.26,0.13-113.88,0-160.49,0c-5.89,0-103.84-5.39-103.84,88.74
	c0.59,38.44,0,170.83,0,170.83h265.41L1636.15,1239.69z"/>
</svg>
